<?xml version="1.0" encoding="UTF-8" standalone="no"?>
<svg
   xmlns:dc="http://purl.org/dc/elements/1.1/"
   xmlns:cc="http://creativecommons.org/ns#"
   xmlns:rdf="http://www.w3.org/1999/02/22-rdf-syntax-ns#"
   xmlns:svg="http://www.w3.org/2000/svg"
   xmlns="http://www.w3.org/2000/svg"
   xmlns:sodipodi="http://sodipodi.sourceforge.net/DTD/sodipodi-0.dtd"
   xmlns:inkscape="http://www.inkscape.org/namespaces/inkscape"
   version="1.1"
   width="512"
   height="512"
   viewBox="0 0 512 512"
   id="svg2"
   inkscape:version="0.91 r13725"
   sodipodi:docname="facebook-icon.svg">
  <metadata
     id="metadata10">
    <rdf:RDF>
      <cc:Work
         rdf:about="">
        <dc:format>image/svg+xml</dc:format>
        <dc:type
           rdf:resource="http://purl.org/dc/dcmitype/StillImage" />
      </cc:Work>
    </rdf:RDF>
  </metadata>
  <defs
     id="defs8" />
  <sodipodi:namedview
     pagecolor="#ffffff"
     bordercolor="#666666"
     borderopacity="1"
     objecttolerance="10"
     gridtolerance="10"
     guidetolerance="10"
     inkscape:pageopacity="0"
     inkscape:pageshadow="2"
     inkscape:window-width="1022"
     inkscape:window-height="618"
     id="namedview6"
     showgrid="false"
     inkscape:zoom="0.4609375"
     inkscape:cx="234.79261"
     inkscape:cy="256"
     inkscape:window-x="302"
     inkscape:window-y="23"
     inkscape:window-maximized="0"
     inkscape:current-layer="svg2" />
  <path
     d="M 337.56517,97.54389 C 328.64501,95.635586 320.19245,94.077524 312.20749,92.869675 304.22221,91.662518 295.53595,91.039274 286.14873,91 c -27.3443,0.117178 -47.0929,6.427354 -59.24578,18.93057 -12.15301,12.50384 -18.11265,30.49961 -17.87886,53.98726 l 0,34.12181 -34.58926,0 0,55.15582 34.58926,0 0,167.80454 67.30876,0 0,-167.80454 49.07929,0 4.67427,-55.15582 -53.75354,0 0,-26.64304 c -0.38964,-7.55641 0.73996,-13.47705 3.3888,-17.76206 2.64861,-4.28441 9.15355,-6.46571 19.51486,-6.5439 4.13851,0.0195 8.94905,0.33138 14.43165,0.93485 5.48234,0.60403 10.64346,1.38305 15.48338,2.33711 z"
     style="fill:#ffffff"
     id="path4"
     inkscape:connector-curvature="0" />
</svg>
